# xmcd
#
# Track frame offsets: 
#        150
#        14531
#        27506
#        39695
#        60215
#        75358
#        89154
#        105351
#        123292
#        140154
#        153196
#        169548
#        181933
#
# Disc length: 2766 seconds
#
# Revision: 0
# Processed by: cddbd v1.4PL0 Copyright (c) Steve Scherf et al.
# Submitted via: ExactAudioCopy v0.95a3
#
DISCID=9c0acc0d
DTITLE=Mighty Fine Wine - Now Hear This
DYEAR=2003
DGENRE=Pop/Funk
TTITLE0=4 Days and 7 Nights
TTITLE1=Norfolk and Western
TTITLE2=No
TTITLE3=Death and Taxe$
TTITLE4=Lonesome Road
TTITLE5=Caroline
TTITLE6=Half a Star in Rolling Stone
TTITLE7=That's the Kind of Song (I Like)
TTITLE8=Fallen
TTITLE9=Lost at Sea
TTITLE10=Sam and Terry's
TTITLE11=Melba Bar
TTITLE12=Specific Situation
EXTD=
EXTT0=
EXTT1=
EXTT2=
EXTT3=
EXTT4=
EXTT5=
EXTT6=
EXTT7=
EXTT8=
EXTT9=
EXTT10=
EXTT11=
EXTT12=
PLAYORDER=
